<svg viewBox="0 0 128 128" xmlns="http://www.w3.org/2000/svg">
  <defs>
    <linearGradient id="g" x1="0" y1="0" x2="1" y2="1">
      <stop offset="0" stop-color="#2f80d6"/>
      <stop offset="1" stop-color="#0a3f78"/>
    </linearGradient>
  </defs>
  <rect x="3" y="3" width="122" height="122" rx="27" fill="url(#g)"/>
  <g fill="#fff">
    <circle cx="64" cy="28" r="6.5"/>
    <rect x="60.3" y="28" width="7.4" height="70" rx="2"/>
    <rect x="24" y="39.5" width="80" height="7" rx="3.5"/>
    <path d="M52 98 h24 l7 9 h-38 z"/>
    <rect x="30.2" y="43" width="3.6" height="9"/>
    <rect x="94.2" y="43" width="3.6" height="9"/>
  </g>
  <g fill="none" stroke="#fff" stroke-width="5.4" stroke-linejoin="round">
    <polygon points="43,62 37.5,71.5 26.5,71.5 21,62 26.5,52.5 37.5,52.5"/>
    <polygon points="107,62 101.5,71.5 90.5,71.5 85,62 90.5,52.5 101.5,52.5"/>
  </g>
</svg>
